<svg width="24" height="26" viewBox="0 0 24 26" fill="none" xmlns="http://www.w3.org/2000/svg">
<path opacity="0.4" fill-rule="evenodd" clip-rule="evenodd" d="M8.18376 4.35192H15.8621V2.56415H8.18376V4.35192ZM6.43707 2.63757V2.64647C5.83768 2.70098 5.24473 2.82001 4.66786 2.99912V2.99245C4.65071 2.99966 4.63457 3.00521 4.61907 3.01054C4.59873 3.01753 4.57951 3.02414 4.56064 3.03361C4.51453 3.04474 4.4695 3.06142 4.42661 3.08256C4.30008 3.12372 4.17356 3.17267 4.05454 3.22274C4.02291 3.23497 3.99128 3.24916 3.95965 3.26334C3.92801 3.27753 3.89638 3.29171 3.86475 3.30395C3.82133 3.32453 3.77602 3.34706 3.73072 3.36958C3.68542 3.39211 3.64012 3.41464 3.59669 3.43522L3.38224 3.55871C3.34259 3.57893 3.30589 3.60265 3.26844 3.62685C3.24614 3.64126 3.22357 3.65584 3.19996 3.66996C2.87721 3.87799 2.57806 4.12163 2.30785 4.39864L2.29177 4.41532C2.25628 4.4567 2.22094 4.49684 2.18608 4.53643C2.1272 4.60331 2.06968 4.66864 2.01513 4.73572L1.99905 4.7513C1.12195 5.96169 0.68233 7.45354 0.75846 8.96541V9.44489H2.49013V8.96096C2.49013 6.8539 3.16136 5.54228 4.655 4.87033C5.22543 4.62892 5.82803 4.47985 6.44136 4.42534H6.45744V2.64535L6.43707 2.63757ZM21.9975 4.72905L22.005 4.74462C22.881 5.95613 23.3185 7.44909 23.2413 8.96096V9.4449H21.5107V8.94872C21.5471 8.05651 21.3681 7.16874 20.9885 6.36663C20.6239 5.68023 20.0406 5.14734 19.3362 4.8581C18.7754 4.61669 18.1814 4.4665 17.5755 4.4131V2.64202C18.1749 2.69764 18.7679 2.81556 19.3458 2.99468V2.98578C19.3783 3.00051 19.4031 3.00927 19.4456 3.02431L19.453 3.02694C19.4728 3.03392 19.4912 3.0409 19.5094 3.0478C19.5347 3.05739 19.5596 3.06683 19.5871 3.07589C19.7056 3.11478 19.8165 3.16063 19.9306 3.20779L19.9506 3.21606C20.0032 3.23455 20.0528 3.25748 20.0975 3.27814C20.1119 3.28483 20.1259 3.29128 20.1393 3.29727C20.2336 3.33843 20.3301 3.38738 20.4073 3.42855C20.4588 3.45526 20.509 3.48386 20.556 3.51067C20.5814 3.52517 20.606 3.53915 20.6293 3.55203C20.6677 3.57325 20.7011 3.59595 20.7332 3.61777C20.7567 3.63372 20.7795 3.64919 20.803 3.66328C21.1268 3.87243 21.4292 4.11718 21.7026 4.39196L21.7123 4.40865C21.813 4.50989 21.9085 4.61669 21.9975 4.72905Z" fill="#5669FF"/>
<path d="M17.625 1.39616V5.33558C17.625 5.83193 17.2222 6.23396 16.725 6.23396C16.2277 6.23396 15.825 5.83193 15.825 5.33558V1.40514C15.8205 0.908786 16.221 0.50339 16.7182 0.500021C17.2155 0.496652 17.6216 0.89531 17.625 1.39167V1.39616Z" fill="#5669FF"/>
<path d="M8.175 1.41049V5.34017C8.175 5.83868 7.77176 6.24287 7.27444 6.24287C6.77712 6.24287 6.375 5.83868 6.375 5.34017V1.41049C6.375 0.911984 6.77712 0.508911 7.27444 0.508911C7.77176 0.508911 8.175 0.911984 8.175 1.41049Z" fill="#5669FF"/>
<path fill-rule="evenodd" clip-rule="evenodd" d="M0.75 19.1377V9.44489H23.25V19.1377C23.25 23.3645 20.8895 25.5 16.2114 25.5H7.7779C3.11052 25.5 0.75 23.3645 0.75 19.1377ZM5.82513 14.8335C5.82513 15.4199 6.2865 15.8957 6.85517 15.8957C7.43457 15.8957 7.89594 15.4088 7.88521 14.8224C7.88521 14.236 7.42384 13.7602 6.8659 13.7602H6.85517C6.2865 13.7602 5.82513 14.247 5.82513 14.8335ZM10.9646 14.8335C10.9646 15.4199 11.4367 15.8957 12.0054 15.8957C12.574 15.8957 13.0354 15.4199 13.0354 14.8224C13.0354 14.247 12.574 13.7712 12.0054 13.7602H11.9946C11.426 13.7712 10.9646 14.247 10.9646 14.8335ZM17.1449 15.8957C16.5762 15.8957 16.1148 15.4199 16.1148 14.8335C16.1148 14.247 16.5655 13.7712 17.1449 13.7712C17.7135 13.7712 18.1749 14.247 18.1749 14.8335C18.1749 15.4199 17.7135 15.8957 17.1449 15.8957ZM17.1449 20.4323C16.5762 20.4323 16.1148 19.9565 16.1041 19.37C16.1041 18.7836 16.5655 18.3078 17.1341 18.3078H17.1449C17.7135 18.3078 18.1749 18.7836 18.1749 19.37C18.1749 19.9565 17.7135 20.4323 17.1449 20.4323ZM12.0054 20.4323C11.4367 20.4323 10.9646 19.9565 10.9646 19.3701C10.9646 18.7836 11.426 18.3078 11.9946 18.2968H12.0054C12.574 18.3078 13.0247 18.7836 13.0354 19.359C13.0354 19.9565 12.574 20.4323 12.0054 20.4323ZM6.85515 20.4323C6.28648 20.4323 5.82511 19.9565 5.82511 19.3701C5.81438 18.7836 6.27575 18.2968 6.85515 18.2968C7.42382 18.2968 7.88519 18.7725 7.88519 19.359C7.88519 19.9454 7.42382 20.4323 6.85515 20.4323Z" fill="#5669FF"/>
</svg>
