<svg width="12" height="18" viewBox="0 0 12 18" fill="none" xmlns="http://www.w3.org/2000/svg">
<path d="M10.5212 6.25479C10.5212 11.0028 6.84902 15.3411 5.84261 16.4409C5.70207 16.5945 5.47836 16.5945 5.33782 16.4409C4.33141 15.3411 0.65918 11.0028 0.65918 6.25479C0.65918 2.9536 3.1247 0.752808 5.59021 0.752808C8.05573 0.752808 10.5212 2.9536 10.5212 6.25479Z" fill="#5568F7"/>
<path fill-rule="evenodd" clip-rule="evenodd" d="M5.59033 1.3511C3.43379 1.3511 1.22826 3.28951 1.22826 6.25474C1.22826 8.47407 2.08992 10.6354 3.1081 12.4063C4.02488 14.0009 5.04358 15.2358 5.59033 15.8512C6.13708 15.2358 7.15579 14.0009 8.07257 12.4063C9.09075 10.6354 9.9524 8.47407 9.9524 6.25474C9.9524 3.28951 7.74687 1.3511 5.59033 1.3511ZM0.090332 6.25474C0.090332 2.6176 2.81584 0.154419 5.59033 0.154419C8.36482 0.154419 11.0903 2.6176 11.0903 6.25474C11.0903 8.78346 10.1159 11.1653 9.04634 13.0255C7.97278 14.8927 6.77235 16.2879 6.2527 16.8558C5.88832 17.254 5.29234 17.254 4.92797 16.8558C4.40831 16.2879 3.20788 14.8927 2.13433 13.0255C1.06479 11.1653 0.090332 8.78346 0.090332 6.25474Z" fill="#5568F7"/>
<path fill-rule="evenodd" clip-rule="evenodd" d="M5.59027 4.92361C4.85707 4.92361 4.26269 5.54868 4.26269 6.31974C4.26269 7.0908 4.85707 7.71587 5.59027 7.71587C6.32348 7.71587 6.91786 7.0908 6.91786 6.31974C6.91786 5.54868 6.32348 4.92361 5.59027 4.92361ZM3.12476 6.31974C3.12476 4.88777 4.22861 3.72693 5.59027 3.72693C6.95194 3.72693 8.05579 4.88777 8.05579 6.31974C8.05579 7.75171 6.95194 8.91255 5.59027 8.91255C4.22861 8.91255 3.12476 7.75171 3.12476 6.31974Z" fill="white"/>
</svg>
