<svg width="140" height="52" viewBox="0 0 140 52" fill="none" xmlns="http://www.w3.org/2000/svg">
<path d="M102.602 0C103.7 0.155138 104.668 0.263734 105.508 0.325789C106.379 0.387844 107.105 0.449899 107.687 0.511954C108.364 0.574009 108.946 0.605037 109.43 0.605037H111.318C112.577 0.605037 114.659 0.558496 117.565 0.465413C116.854 0.682606 116.257 0.992881 115.773 1.39624C115.321 1.7996 114.95 2.21847 114.659 2.65285C114.304 3.14929 114.046 3.66125 113.885 4.18872C113.691 4.8403 113.513 5.70907 113.352 6.79503C113.191 7.75688 113.029 9.0135 112.868 10.5649C112.739 12.1163 112.609 14.0555 112.48 16.3825C113.868 14.8622 115.079 13.5125 116.112 12.3334C117.177 11.1544 118.097 10.115 118.872 9.21518C119.647 8.31538 120.292 7.53969 120.809 6.88811C121.358 6.23653 121.81 5.67804 122.165 5.21263C123.004 4.15769 123.488 3.44406 123.617 3.07173C123.65 2.85453 123.634 2.5908 123.569 2.28052C123.504 2.0323 123.408 1.73754 123.278 1.39624C123.149 1.02391 122.956 0.620551 122.697 0.186165C123.989 0.24822 125.086 0.294762 125.99 0.325789C126.926 0.356817 127.701 0.387844 128.314 0.418872C129.025 0.449899 129.606 0.465413 130.058 0.465413H132.091C132.834 0.465413 133.802 0.465413 134.997 0.465413C136.191 0.434385 137.692 0.403358 139.5 0.37233C138.305 0.651578 137.176 1.02391 136.11 1.48932C135.045 1.95473 134.093 2.40463 133.253 2.83902C132.285 3.36649 131.381 3.90947 130.542 4.46797C129.702 5.08852 128.766 5.81766 127.733 6.65541C126.862 7.36904 125.845 8.25332 124.683 9.30826C123.521 10.3322 122.262 11.5267 120.906 12.8919C122.358 15.6224 123.617 17.8719 124.683 19.6404C125.78 21.378 126.7 22.7742 127.443 23.8291C128.282 25.0702 128.992 26.0166 129.573 26.6682C130.154 27.2577 130.832 27.8627 131.607 28.4833C132.253 29.0107 133.06 29.6003 134.028 30.2518C134.997 30.8724 136.11 31.4774 137.369 32.067L123.569 32.7185C123.763 32.4703 123.876 32.1756 123.908 31.8343C123.973 31.4619 124.005 31.1206 124.005 30.8103C124.005 30.469 123.973 30.0967 123.908 29.6934C123.779 29.1969 123.44 28.3902 122.891 27.2732C122.439 26.3114 121.745 24.9617 120.809 23.2241C119.873 21.4555 118.582 19.1285 116.935 16.2429L112.819 20.3851C112.658 21.378 112.577 22.2778 112.577 23.0845C112.577 23.8912 112.609 24.5583 112.674 25.0858C112.771 25.7373 112.9 26.2958 113.061 26.7612C113.255 27.2267 113.529 27.7541 113.885 28.3437C114.175 28.8711 114.562 29.4917 115.047 30.2053C115.531 30.9189 116.144 31.7101 116.887 32.5789C116.144 32.3927 115.402 32.2686 114.659 32.2066C113.917 32.1135 113.239 32.0514 112.626 32.0204C111.915 31.9894 111.238 32.0049 110.592 32.067C109.914 32.129 109.123 32.2221 108.219 32.3462C107.444 32.4703 106.492 32.6255 105.362 32.8116C104.232 32.9978 102.941 33.2305 101.489 33.5097C102.199 33.1064 102.764 32.672 103.183 32.2066C103.603 31.7412 103.942 31.2913 104.2 30.8569C104.491 30.3604 104.684 29.8795 104.781 29.4141C104.846 29.0107 104.894 28.142 104.926 26.8078C104.991 25.4736 105.023 23.9222 105.023 22.1537C105.056 20.3541 105.056 18.4614 105.023 16.4756C104.991 14.4899 104.959 12.6282 104.926 10.8907C104.894 9.15312 104.846 7.67932 104.781 6.46924C104.749 5.22814 104.717 4.46797 104.684 4.18872C104.588 3.75433 104.458 3.28892 104.297 2.79248C104.136 2.35809 103.91 1.90819 103.619 1.44278C103.361 0.94634 103.022 0.465413 102.602 0Z" fill="#1729C7"/>
<path d="M65.5015 5.76403C66.8553 6.11986 68.1457 6.38674 69.3726 6.56465C70.5995 6.74257 71.6783 6.87601 72.6091 6.96496C73.7091 7.0984 74.7244 7.14288 75.6552 7.0984C76.8398 7.0984 78.3205 6.9872 80.0975 6.76481C81.9167 6.54241 83.7782 6.34226 85.682 6.16434C87.5858 5.94194 89.405 5.80851 91.1396 5.76403C92.9165 5.67507 94.355 5.78627 95.455 6.09762C96.555 6.3645 97.6761 6.78705 98.8184 7.36528C100.003 7.89903 101.082 8.58845 102.055 9.43356C103.028 10.2342 103.832 11.1905 104.466 12.3025C105.101 13.37 105.461 14.5931 105.545 15.972C105.503 17.7067 105.122 19.3302 104.403 20.8425C103.811 22.1324 102.816 23.4667 101.42 24.8456C100.024 26.18 98.0146 27.203 95.3915 27.9146C96.703 28.0926 97.8242 28.4039 98.7549 28.8487C99.728 29.249 100.553 29.7383 101.23 30.3165C101.949 30.8503 102.52 31.4507 102.943 32.1179C103.409 32.7851 103.768 33.4523 104.022 34.1195C104.657 35.6762 104.953 37.4109 104.911 39.3235C104.657 41.8144 104.17 43.7937 103.451 45.2615C102.774 46.7293 101.991 47.8635 101.103 48.6642C100.215 49.4648 99.3049 50.0208 98.3742 50.3321C97.4434 50.6435 96.5973 50.8881 95.8357 51.066C95.0742 51.2439 94.1434 51.3329 93.0435 51.3329C91.9435 51.3329 90.7589 51.3107 89.4896 51.2662C88.2627 51.1772 86.9935 51.1105 85.682 51.066C84.3705 50.9771 83.1224 50.9771 81.9378 51.066C80.9647 51.155 79.7801 51.2439 78.384 51.3329C77.1994 51.4219 75.7187 51.5331 73.9418 51.6665C72.1648 51.7555 70.0918 51.8667 67.7226 52.0001C68.188 51.6443 68.5687 51.2439 68.8649 50.7992C69.2033 50.3099 69.4783 49.8873 69.6899 49.5315C69.9014 49.0867 70.0918 48.6642 70.261 48.2638C70.3879 47.908 70.4937 46.9295 70.5783 45.3282C70.6629 43.727 70.7264 41.8144 70.7687 39.5904C70.811 37.322 70.8322 34.8979 70.8322 32.3181C70.8745 29.6938 70.8533 27.1807 70.7687 24.7789C70.7264 22.3325 70.6418 20.1753 70.5149 18.3071C70.4303 16.3945 70.3033 15.0157 70.1341 14.1706C69.8803 13.2365 69.5418 12.2802 69.1187 11.3017C68.7803 10.4566 68.2937 9.54475 67.6591 8.56621C67.0668 7.58767 66.3476 6.65361 65.5015 5.76403ZM78.8917 12.5693C78.8917 12.7473 78.9128 13.3477 78.9552 14.3707C78.9975 15.2603 79.0398 16.6392 79.0821 18.5073C79.1667 20.3309 79.2725 22.933 79.3994 26.3134C80.4571 26.8027 81.4936 27.0695 82.509 27.114C83.5243 27.114 84.4339 27.0695 85.2378 26.9806C86.1685 26.8471 87.057 26.6247 87.9031 26.3134C89.0454 25.8241 89.9339 25.0235 90.5685 23.9115C91.2454 22.7995 91.6896 21.6431 91.9012 20.4421C92.155 19.1967 92.2185 18.0403 92.0915 16.9728C91.9646 15.8608 91.6896 15.0602 91.2666 14.5709C90.4627 13.8148 89.4685 13.192 88.2839 12.7028C87.2685 12.3025 85.9782 12.0356 84.4128 11.9021C82.8897 11.7242 81.0494 11.9466 78.8917 12.5693ZM78.5744 44.194C80.1398 45.0391 81.5147 45.5951 82.6993 45.862C83.8839 46.1288 84.8782 46.2623 85.682 46.2623C86.6128 46.2623 87.4166 46.1288 88.0935 45.862C88.8973 45.4617 89.68 44.9279 90.4416 44.2607C91.2454 43.5491 91.8377 42.7262 92.2185 41.7921C92.6415 40.8136 92.8108 39.7461 92.7262 38.5896C92.6415 37.3887 92.155 36.0766 91.2666 34.6532C90.4627 33.6302 89.4896 32.8296 88.3474 32.2514C87.332 31.7621 86.0416 31.4507 84.4762 31.3173C82.9532 31.1839 81.0705 31.5619 78.8282 32.4515L78.5744 44.194Z" fill="#1729C7"/>
<path d="M39.3354 2.29825C41.7677 2.59454 43.8732 2.81677 45.6519 2.96491C47.4307 3.07602 48.901 3.16862 50.0626 3.24269C51.4058 3.31677 52.5311 3.33528 53.4387 3.29825C54.3825 3.26121 55.6712 3.16862 57.3048 3.02047C58.6843 2.90936 60.4993 2.76121 62.7501 2.57602C65.0008 2.3538 67.8141 2.0575 71.1902 1.68713C71.2265 2.53899 71.2447 3.37232 71.2447 4.18714C71.281 4.96492 71.3173 5.6501 71.3536 6.2427C71.3899 6.9464 71.408 7.59455 71.408 8.18714C71.408 8.81677 71.3717 9.61307 71.2991 10.576C71.2265 11.3909 71.0994 12.4279 70.9179 13.6872C70.7727 14.9094 70.5368 16.3723 70.2101 18.076C69.7018 16.076 69.2118 14.4649 68.7398 13.2427C68.2679 11.9834 67.8323 10.9834 67.433 10.2427C66.9974 9.39085 66.5617 8.7427 66.1261 8.29826C65.6542 7.96492 65.0915 7.68714 64.4381 7.46492C63.8573 7.27974 63.1131 7.13159 62.2055 7.02048C61.3343 6.90936 60.2997 6.92788 59.1017 7.07603C58.9202 11.9649 58.7932 15.9279 58.7206 18.9649C58.648 22.002 58.5935 24.3724 58.5572 26.0761C58.5209 28.1131 58.5028 29.5761 58.5028 30.465C58.5391 31.7242 58.7387 32.965 59.1017 34.1872C59.3921 35.2242 59.8641 36.2983 60.5175 37.4094C61.1709 38.5205 62.1148 39.502 63.349 40.3539H56.7058C56.0887 40.3539 55.3264 40.3909 54.4188 40.465C53.6565 40.539 52.6763 40.6131 51.4784 40.6872C50.3167 40.7613 48.9554 40.8909 47.3944 41.0761C47.939 40.1131 48.3746 39.2427 48.7013 38.465C49.028 37.6872 49.2821 37.0205 49.4636 36.465C49.6814 35.7983 49.8448 35.2057 49.9537 34.6872C49.99 33.9464 50.0808 32.4464 50.226 30.1872C50.2623 29.2613 50.2986 28.1131 50.3349 26.7427C50.4075 25.3724 50.4801 23.7427 50.5527 21.8538C50.6616 19.9649 50.7523 17.7983 50.8249 15.3538C50.9338 12.8723 51.0428 10.076 51.1517 6.96492C50.4982 6.77973 49.8811 6.79825 49.3003 7.02048C48.7194 7.20566 48.2112 7.4464 47.7756 7.7427C47.2674 8.11307 46.7773 8.55751 46.3054 9.07603C45.8335 9.70566 45.3071 10.5205 44.7263 11.5205C44.218 12.3723 43.6372 13.502 42.9838 14.9094C42.3303 16.2797 41.5862 17.9835 40.7512 20.0205C40.5697 17.8723 40.4427 16.1131 40.37 14.7427C40.2974 13.3353 40.243 12.2427 40.2067 11.4649C40.1704 10.539 40.1522 9.85381 40.1522 9.40937C40.1522 9.00196 40.1159 8.46492 40.0433 7.79825C39.9707 7.2427 39.88 6.52047 39.7711 5.63158C39.6622 4.70566 39.517 3.59454 39.3354 2.29825Z" fill="#1729C7"/>
<path d="M49.0013 0.0463867C48.3443 1.45855 47.7577 2.69419 47.2415 3.75332C46.7252 4.81244 46.2794 5.71711 45.904 6.46732C45.4816 7.30579 45.1296 8.056 44.8481 8.71796C44.6134 9.20339 44.3084 9.86534 43.9329 10.7038C43.5575 11.454 43.0882 12.447 42.5251 13.6826C42.0088 14.8741 41.3284 16.4187 40.4837 18.3163C40.0613 16.6834 39.5451 15.2492 38.935 14.0136C38.3249 12.7779 37.6679 11.6967 36.964 10.77C36.26 9.84327 35.5092 9.09306 34.7114 8.51937C33.9605 7.90155 33.2096 7.39405 32.4588 6.99688C30.7224 6.11428 28.8921 5.62885 26.968 5.54059C24.4339 5.67298 22.4394 6.07015 20.9846 6.7321C19.5767 7.34992 18.5443 8.07807 17.8873 8.91654C17.2302 9.71088 16.8783 10.5494 16.8314 11.432C16.7844 12.2704 16.9017 12.9765 17.1833 13.5502C17.418 14.0798 18.2392 14.6976 19.6471 15.4037C21.1019 16.1098 22.8383 16.9262 24.8562 17.8529C26.9211 18.7355 29.1268 19.7505 31.4732 20.8979C33.8197 22.0011 35.9784 23.2368 37.9495 24.6048C39.9674 25.9287 41.6569 27.385 43.0178 28.9737C44.4257 30.5182 45.2 32.1731 45.3408 33.9383C45.4816 36.189 45.4581 38.2189 45.2704 40.0283C45.0827 41.8376 44.4257 43.3822 43.2994 44.6619C42.1731 45.9417 40.4133 46.9567 38.0199 47.7069C35.6734 48.4571 32.4118 48.9205 28.2351 49.097C23.9177 49.2735 20.3745 49.0529 17.6057 48.4351C14.8369 47.8172 12.5843 46.9788 10.8479 45.9196C9.15843 44.8605 7.89134 43.6911 7.04662 42.4113C6.24882 41.1315 5.66221 39.918 5.28678 38.7706C4.91134 37.5791 4.65323 36.5641 4.51244 35.7256C4.37166 34.843 4.13701 34.3134 3.80851 34.1369C3.43307 33.9163 3.05764 33.7177 2.68221 33.5412C2.3537 33.3646 2.00173 33.2102 1.6263 33.0778C1.25087 32.9013 0.875433 32.7468 0.5 32.6144L20.9846 29.5032C19.8114 30.3858 18.8962 31.2023 18.2392 31.9525C17.6291 32.7027 17.1599 33.3646 16.8314 33.9383C16.4559 34.6003 16.1978 35.2181 16.057 35.7918C15.9632 36.4096 16.1743 37.1819 16.6906 38.1086C17.2068 39.0353 17.9107 39.94 18.8024 40.8226C19.741 41.6611 20.8203 42.3672 22.0405 42.9409C23.2606 43.5146 24.5277 43.7573 25.8418 43.669C27.4843 43.5366 28.8218 43.1615 29.8542 42.5437C30.8866 41.8817 31.661 41.0653 32.1772 40.0945C32.7403 39.1236 33.0688 38.0645 33.1627 36.9171C33.2566 35.7697 33.1392 34.6444 32.8107 33.5412C32.5292 32.3938 32.0599 31.3346 31.4029 30.3638C30.7458 29.3488 29.9715 28.5103 29.0799 27.8484C28.2821 27.3188 27.0384 26.8113 25.349 26.3259C23.7065 25.8404 21.8528 25.3109 19.7879 24.7372C17.7699 24.1635 15.6816 23.5015 13.5228 22.7513C11.411 22.0011 9.48694 21.0744 7.75056 19.9711C6.06111 18.8679 4.70016 17.566 3.66772 16.0656C2.68221 14.5652 2.30677 12.7559 2.54142 10.6376C2.72914 8.82828 3.33921 7.32786 4.37166 6.13634C5.45103 4.9007 6.78851 3.92984 8.3841 3.22376C10.0266 2.47354 11.8334 1.92192 13.8044 1.56888C15.8224 1.21583 17.8638 1.01725 19.9287 0.973119C22.0405 0.884859 24.1054 0.906924 26.1233 1.03931C28.1882 1.1717 30.0419 1.32616 31.6844 1.50268C33.327 1.6792 34.7114 1.85572 35.8377 2.03224C37.0109 2.16463 37.7383 2.25289 38.0199 2.29702C39.24 2.38528 40.4602 2.36322 41.6803 2.23083C42.7597 2.14257 43.9329 1.94398 45.2 1.63507C46.514 1.28203 47.7811 0.752469 49.0013 0.0463867Z" fill="#1729C7"/>
</svg>
